<?xml version="1.0" encoding="UTF-8"?>
<svg version="1.1" viewBox="0 0 512 512" xmlns="http://www.w3.org/2000/svg">
 <path d="m88.538 224.15c-3.939-4.383-10.686-4.739-15.063-0.798-4.381 3.937-4.739 10.684-0.8 15.063 1.386 1.539 2.837 3.071 4.317 4.553 2.083 2.081 4.813 3.123 7.544 3.123 2.73 0 5.458-1.041 7.541-3.123 4.166-4.166 4.166-10.921 0-15.086-1.214-1.215-2.406-2.472-3.539-3.732z"/>
 <path d="m76.992 77.032c-17.185 17.185-28.466 38.884-32.621 62.753-4.061 23.323-1.077 47.013 8.623 68.505 1.781 3.946 5.665 6.282 9.729 6.282 1.467 0 2.958-0.304 4.381-0.948 5.369-2.422 7.758-8.739 5.333-14.111-16.325-36.167-8.431-79.325 19.64-107.4 4.166-4.166 4.166-10.918 0-15.086-4.165-4.163-10.917-4.164-15.085 0z"/>
 <path d="m266.93 111.71c-2.422-5.369-8.739-7.755-14.111-5.336-5.369 2.422-7.758 8.741-5.336 14.111 16.323 36.169 8.429 79.33-19.64 107.4-4.164 4.164-4.164 10.918 0 15.086 2.083 2.081 4.813 3.123 7.544 3.123 2.73 0 5.458-1.041 7.541-3.123 17.187-17.187 28.466-38.886 32.622-62.753 4.06-23.322 1.081-47.012-8.62-68.506z"/>
 <path d="m231.38 95.85c2.107 2.341 5.014 3.534 7.934 3.534 2.542 0 5.091-0.902 7.13-2.735 4.381-3.937 4.739-10.684 0.8-15.063-1.404-1.563-2.859-3.095-4.323-4.556-4.169-4.162-10.921-4.156-15.084 0.013-4.162 4.169-4.158 10.921 0.011 15.084 1.193 1.192 2.383 2.444 3.532 3.723z"/>
 <path d="m505.72 445.43l-134.5-134.5c-9e-3 -8e-3 -0.015-0.017-0.021-0.022-9e-3 -8e-3 -0.017-0.015-0.023-0.023l-28.646-28.643c-4.021-4.023-9.377-6.238-15.084-6.238-1.888 0-3.727 0.265-5.502 0.734l-28.5-28.501c41.063-62.09 34.282-146.74-20.354-201.37-30.22-30.22-70.4-46.864-113.14-46.864-42.739 0-82.917 16.644-113.14 46.862-62.381 62.383-62.381 163.89 0 226.28 30.219 30.219 70.398 46.861 113.14 46.861 31.865 0 62.305-9.257 88.259-26.49l28.477 28.479c-0.468 1.775-0.734 3.617-0.734 5.502 0 5.707 2.214 11.065 6.234 15.084l28.65 28.65c9e-3 9e-3 0.013 0.015 0.021 0.022 6e-3 6e-3 0.015 0.013 0.021 0.019l134.5 134.5c4.021 4.021 9.379 6.236 15.086 6.236 5.705 0 11.063-2.214 15.084-6.238l30.169-30.169c4.022-4.021 6.238-9.379 6.238-15.088-1e-3 -5.707-2.218-11.062-6.239-15.077zm-247.82-187.27c-26.179 26.123-60.956 40.509-97.944 40.509-37.04 0-71.862-14.423-98.052-40.613-54.066-54.068-54.066-142.04 0-196.1 26.19-26.19 61.012-40.615 98.051-40.615 37.038 0 71.861 14.425 98.053 40.615 54.031 54.029 54.066 141.92 0.102 196l-0.21 0.208zm7.651 22.523l7.413-7.416c0.044-0.042 0.087-0.083 0.129-0.125s0.081-0.083 0.123-0.125l7.419-7.421 24.186 24.188-15.084 15.084-24.186-24.185zm31.728 46.811l30.169-30.167 21.125 21.125-30.167 30.169-21.127-21.127zm163.22 163.17c-4e-3 2e-3 -0.015 4e-3 -0.027 4e-3v0.013l-126.98-126.98 30.167-30.171 126.98 126.97-30.142 30.156z"/>
 <g transform="matrix(.25656 0 0 .25656 98.83 90.479)">
  <path d="m99 147v51.1h-3.4c-21.4 0-38.8 17.4-38.8 38.8v213.7c0 21.4 17.4 38.8 38.8 38.8h298.2c21.4 0 38.8-17.4 38.8-38.8v-213.8c0-21.4-17.4-38.8-38.8-38.8h-1v-51.1c0-81-65.9-146.9-146.9-146.9-81 0.1-146.9 66-146.9 147zm168.7 206.2c-3 2.2-3.8 4.3-3.8 7.8 0.1 15.7 0.1 31.3 0.1 47 0.3 6.5-3 12.9-8.8 15.8-13.7 7-27.4-2.8-27.4-15.8v-0.1c0-15.7 0-31.4 0.1-47.1 0-3.2-0.7-5.3-3.5-7.4-14.2-10.5-18.9-28.4-11.8-44.1 6.9-15.3 23.8-24.3 39.7-21.1 17.7 3.6 30 17.8 30.2 35.5 0 12.3-4.9 22.3-14.8 29.5zm-104.4-206.2c0-45.6 37.1-82.6 82.6-82.6 45.6 0 82.6 37.1 82.6 82.6v51.1h-165.2z" fill="#a80"/>
 </g>
</svg>
